# xmcd
#
# Track frame offsets: 
#        150
#        31904
#        68739
#        92161
#        114580
#        133277
#        154942
#        177184
#        194188
#        218068
#        233710
#        261392
#        282564
#        305361
#
# Disc length: 4351 seconds
#
# Revision: 1
# Processed by: cddbd v1.5.2PL0 Copyright (c) Steve Scherf et al.
# Submitted via: ExactAudioCopy v0.99pb4
#
DISCID=d510fd0e
DTITLE=Hughes, Joe "Guitar"  - Down and Depressed: Dangerous
DYEAR=1993
DGENRE=Blues
TTITLE0=Big boss man
TTITLE1=Put the crack down - Pt. 1 and 2
TTITLE2=Dowling and Holman
TTITLE3=You didn't want me
TTITLE4=I wanna know
TTITLE5=Now I'm mad
TTITLE6=Don't take it so hard
TTITLE7=Okie dokie stomp
TTITLE8=Send me someone to love
TTITLE9=Pitbull
TTITLE10=Don't throw your love on me so strong
TTITLE11=Something on your mind
TTITLE12=Baby, what you want me to do
TTITLE13=Dangerous situation
EXTD=ARD Munich records NETCD 0044
EXTT0=
EXTT1=
EXTT2=
EXTT3=
EXTT4=
EXTT5=
EXTT6=
EXTT7=
EXTT8=
EXTT9=
EXTT10=
EXTT11=
EXTT12=
EXTT13=
PLAYORDER=
